<svg xmlns="http://www.w3.org/2000/svg" xmlns:xlink="http://www.w3.org/1999/xlink">
    <symbol id="burgerMenu" viewBox="157 266 656 492">
        <path
            d="M177.50016 307.2h614.4a20.48 20.48 0 1 0 0-40.96h-614.4a20.48 20.48 0 1 0 0 40.96zM177.50016 757.76h614.4a20.48 20.48 0 1 0 0-40.96h-614.4a20.48 20.48 0 1 0 0 40.96zM177.50016 532.48h614.4a20.48 20.48 0 1 0 0-40.96h-614.4a20.48 20.48 0 1 0 0 40.96z"
            fill="currentColor" />
    </symbol>
    <symbol id="plus" viewBox="186 136 128 128">
        <path d="M306,192h-48v-48c0-4.4-3.6-8-8-8s-8,3.6-8,8v48h-48c-4.4,0-8,3.6-8,8s3.6,8,8,8h48v48c0,4.4,3.6,8,8,8s8-3.6,8-8v-48h48
	c4.4,0,8-3.6,8-8S310.4,192,306,192z" />
    </symbol>
    <symbol id="export" viewBox="0 49 493.525 396">
        <g>
            <path d="M430.557,79.556H218.44c21.622,12.688,40.255,29.729,54.859,49.906h157.258
		c7.196,0,13.063,5.863,13.063,13.06v238.662c0,7.199-5.866,13.064-13.063,13.064H191.894c-7.198,0-13.062-5.865-13.062-13.064
		V222.173c-6.027-3.1-12.33-5.715-18.845-7.732c-3.818,11.764-12.105,21.787-23.508,27.781c-2.39,1.252-4.987,2.014-7.554,2.844
		v136.119c0,34.717,28.25,62.971,62.968,62.971h238.663c34.718,0,62.969-28.254,62.969-62.971V142.522
		C493.525,107.806,465.275,79.556,430.557,79.556z" />
            <path d="M129.037,175.989c51.419,1.234,96.388,28.283,122.25,68.865c2.371,3.705,6.434,5.848,10.657,5.848
		c1.152,0,2.322-0.162,3.46-0.486c5.377-1.545,9.114-6.418,9.179-12.006c0-0.504,0-1.01,0-1.51
		c0-81.148-64.853-147.023-145.527-148.957V64.155c0-5.492-3.038-10.512-7.879-13.078c-2.16-1.139-4.533-1.707-6.889-1.707
		c-2.94,0-5.848,0.88-8.35,2.584L5.751,120.526C2.162,122.98,0.018,127.041,0,131.394c-0.017,4.338,2.113,8.418,5.687,10.902
		l100.17,69.451c2.518,1.753,5.459,2.631,8.414,2.631c2.355,0,4.696-0.553,6.857-1.676c4.855-2.549,7.909-7.6,7.909-13.092V175.989z
		" />
        </g>
    </symbol>
    <symbol id="chevronDown" viewBox="0 0 407.437 407.437">
        <polygon points="386.258,91.567 203.718,273.512 21.179,91.567 0,112.815 203.718,315.87 407.437,112.815 " />
    </symbol>
    <symbol id="pin" viewBox="0 0 395.71 395.71">
        <path
            d="M197.849,0C122.131,0,60.531,61.609,60.531,137.329c0,72.887,124.591,243.177,129.896,250.388l4.951,6.738   c0.579,0.792,1.501,1.255,2.471,1.255c0.985,0,1.901-0.463,2.486-1.255l4.948-6.738c5.308-7.211,129.896-177.501,129.896-250.388   C335.179,61.609,273.569,0,197.849,0z M197.849,88.138c27.13,0,49.191,22.062,49.191,49.191c0,27.115-22.062,49.191-49.191,49.191   c-27.114,0-49.191-22.076-49.191-49.191C148.658,110.2,170.734,88.138,197.849,88.138z">
        </path>
    </symbol>
    <symbol id="person" viewBox="5 5 22 22">
        <path d="M16 16a5 5 0 1 0 0-11 5 5 0 0 0 0 11zm0 2c-7 0-11 3-11 5v4h22v-4c0-2-4-5-11-5z" />
    </symbol>
    <symbol id="search" viewBox="0 0 20 20">
        <path fill="transparent" stroke="currentColor" stroke-linecap="round" stroke-linejoin="round" stroke-width="2"
            d="m19 19-4-4m0-7A7 7 0 1 1 1 8a7 7 0 0 1 14 0Z" />
    </symbol>
    <symbol id="cross" viewBox="0 0 14 14">
        <path stroke="currentColor" stroke-linecap="round" stroke-linejoin="round" stroke-width="2"
            d="m1 1 6 6m0 0 6 6M7 7l6-6M7 7l-6 6" />
    </symbol>
    <symbol id="group" viewBox="0 0 611.998 611.998">
        <g>
            <g>
                <path d="M382.167,150.945c9.702,10.875,16.557,24.306,20.381,39.921c3.629,14.822,4.44,31.308,2.414,49.006
			c-0.751,6.546-1.861,13.96-3.479,21.802c12.532,12.135,28.95,19.839,50.296,19.838c59.22-0.005,80.529-59.3,86.105-108.006
			c6.872-60.004-21.498-105.163-86.105-105.163c-50.698,0-79.079,27.82-85.628,68.798
			C372.076,141.062,377.449,145.655,382.167,150.945z" />
                <path d="M611.973,422.704c-0.645-18.899-2.861-37.887-6.161-56.495c-3.992-22.539-9.08-55.585-28.759-70.275
			c-11.38-8.491-26.117-11.278-39.143-16.398c-6.343-2.492-12.024-4.967-17.354-7.784c-17.995,19.734-41.459,30.055-68.782,30.057
			c-21.261,0-40.172-6.281-56.001-18.358c-3.644,11.272-8.522,22.623-15.044,32.994c5.728,3.449,11.923,6.204,19.451,9.162
			c3.332,1.31,6.99,2.506,10.864,3.771c10.472,3.422,22.339,7.301,32.994,15.255c25.329,18.907,31.564,54.336,36.117,80.207
			l0.49,2.792c2.355,13.266,4.084,26.299,5.197,38.961c20.215-2.071,40.327-5.61,60.047-9.774
			c15.941-3.365,31.774-7.471,47.109-13.003C605.247,439.397,612.476,437.343,611.973,422.704z" />
                <path d="M160.216,281.511c21.345,0.002,37.762-7.703,50.295-19.838c-1.618-7.841-2.728-15.256-3.479-21.802
			c-2.026-17.697-1.214-34.184,2.414-49.006c3.823-15.614,10.679-29.046,20.381-39.921c4.718-5.291,10.09-9.884,16.014-13.805
			c-6.549-40.978-34.93-68.798-85.628-68.798c-64.606,0-92.977,45.16-86.106,105.163
			C79.687,222.212,100.996,281.507,160.216,281.511z" />
                <path d="M167.957,344.634c10.655-7.954,22.524-11.833,32.994-15.255c3.875-1.265,7.531-2.461,10.864-3.771
			c7.528-2.957,13.725-5.711,19.451-9.162c-6.52-10.369-11.4-21.722-15.043-32.994c-15.829,12.077-34.741,18.358-56.001,18.358
			c-27.322-0.001-50.788-10.324-68.782-30.057c-5.329,2.817-11.012,5.291-17.354,7.784c-13.026,5.12-27.763,7.907-39.143,16.398
			c-19.678,14.691-24.767,47.735-28.759,70.275c-3.3,18.607-5.516,37.595-6.161,56.495c-0.502,14.64,6.726,16.693,18.974,21.112
			c15.334,5.531,31.17,9.637,47.109,13.003c19.72,4.165,39.833,7.704,60.047,9.774c1.112-12.662,2.841-25.693,5.197-38.961
			l0.49-2.792C136.394,398.971,142.628,363.541,167.957,344.634z" />
                <path d="M470.351,429.405l-0.493-2.805c-4.258-24.197-10.091-57.334-32.191-73.832c-9.321-6.957-19.872-10.404-30.078-13.74
			c-4.019-1.313-7.812-2.554-11.427-3.974c-5.269-2.07-10.016-4.097-14.464-6.338c-18.684,24.932-44.58,38.059-75.383,38.062
			c-30.795,0-56.687-13.128-75.371-38.062c-4.449,2.243-9.196,4.269-14.467,6.34c-3.61,1.418-7.406,2.659-11.424,3.972
			c-10.207,3.335-20.761,6.784-30.079,13.74c-22.107,16.5-27.936,49.645-32.193,73.846l-0.493,2.795
			c-3.557,20.086-5.68,39.572-6.308,57.914c-0.737,21.519,12.62,26.316,24.403,30.55l1.269,0.457
			c14.17,5.112,30.021,9.492,48.457,13.388c37.646,7.946,68.197,11.74,96.138,11.938h0.072h0.072
			c27.946-0.199,58.495-3.992,96.135-11.938c18.439-3.894,34.289-8.274,48.453-13.387l1.268-0.456
			c11.786-4.233,25.147-9.029,24.41-30.553C476.03,468.931,473.906,449.447,470.351,429.405z" />
                <path d="M221.005,243.009c5.577,48.709,26.883,108.009,86.103,108.006s80.529-59.297,86.106-108.006
			c6.871-60.002-21.503-105.16-86.106-105.16C242.515,137.847,214.123,183.002,221.005,243.009z" />
            </g>
        </g>
    </symbol>
    <symbol id="alert" fill="transparent" shape-rendering="geometricPrecision" stroke="currentColor"
        stroke-linecap="round" stroke-linejoin="round" stroke-width="1.5" viewBox="0 0 24 24">
        <path d="M7.86 2h8.28L22 7.86v8.28L16.14 22H7.86L2 16.14V7.86L7.86 2z"></path>
        <path d="M12 8v4"></path>
        <path d="M12 16h.01"></path>
    </symbol>
    <symbol id="share" viewBox="0 0 481.6 481.6">
        <g>
            <path d="M381.6,309.4c-27.7,0-52.4,13.2-68.2,33.6l-132.3-73.9c3.1-8.9,4.8-18.5,4.8-28.4c0-10-1.7-19.5-4.9-28.5l132.2-73.8
		c15.7,20.5,40.5,33.8,68.3,33.8c47.4,0,86.1-38.6,86.1-86.1S429,0,381.5,0s-86.1,38.6-86.1,86.1c0,10,1.7,19.6,4.9,28.5
		l-132.1,73.8c-15.7-20.6-40.5-33.8-68.3-33.8c-47.4,0-86.1,38.6-86.1,86.1s38.7,86.1,86.2,86.1c27.8,0,52.6-13.3,68.4-33.9
		l132.2,73.9c-3.2,9-5,18.7-5,28.7c0,47.4,38.6,86.1,86.1,86.1s86.1-38.6,86.1-86.1S429.1,309.4,381.6,309.4z M381.6,27.1
		c32.6,0,59.1,26.5,59.1,59.1s-26.5,59.1-59.1,59.1s-59.1-26.5-59.1-59.1S349.1,27.1,381.6,27.1z M100,299.8
		c-32.6,0-59.1-26.5-59.1-59.1s26.5-59.1,59.1-59.1s59.1,26.5,59.1,59.1S132.5,299.8,100,299.8z M381.6,454.5
		c-32.6,0-59.1-26.5-59.1-59.1c0-32.6,26.5-59.1,59.1-59.1s59.1,26.5,59.1,59.1C440.7,428,414.2,454.5,381.6,454.5z" />
        </g>
    </symbol>
    <symbol id="copy" viewBox="0 0 115.77 122.88">
        <g>
            <path
                d="M89.62,13.96v7.73h12.19h0.01v0.02c3.85,0.01,7.34,1.57,9.86,4.1c2.5,2.51,4.06,5.98,4.07,9.82h0.02v0.02 v73.27v0.01h-0.02c-0.01,3.84-1.57,7.33-4.1,9.86c-2.51,2.5-5.98,4.06-9.82,4.07v0.02h-0.02h-61.7H40.1v-0.02 c-3.84-0.01-7.34-1.57-9.86-4.1c-2.5-2.51-4.06-5.98-4.07-9.82h-0.02v-0.02V92.51H13.96h-0.01v-0.02c-3.84-0.01-7.34-1.57-9.86-4.1 c-2.5-2.51-4.06-5.98-4.07-9.82H0v-0.02V13.96v-0.01h0.02c0.01-3.85,1.58-7.34,4.1-9.86c2.51-2.5,5.98-4.06,9.82-4.07V0h0.02h61.7 h0.01v0.02c3.85,0.01,7.34,1.57,9.86,4.1c2.5,2.51,4.06,5.98,4.07,9.82h0.02V13.96L89.62,13.96z M79.04,21.69v-7.73v-0.02h0.02 c0-0.91-0.39-1.75-1.01-2.37c-0.61-0.61-1.46-1-2.37-1v0.02h-0.01h-61.7h-0.02v-0.02c-0.91,0-1.75,0.39-2.37,1.01 c-0.61,0.61-1,1.46-1,2.37h0.02v0.01v64.59v0.02h-0.02c0,0.91,0.39,1.75,1.01,2.37c0.61,0.61,1.46,1,2.37,1v-0.02h0.01h12.19V35.65 v-0.01h0.02c0.01-3.85,1.58-7.34,4.1-9.86c2.51-2.5,5.98-4.06,9.82-4.07v-0.02h0.02H79.04L79.04,21.69z M105.18,108.92V35.65v-0.02 h0.02c0-0.91-0.39-1.75-1.01-2.37c-0.61-0.61-1.46-1-2.37-1v0.02h-0.01h-61.7h-0.02v-0.02c-0.91,0-1.75,0.39-2.37,1.01 c-0.61,0.61-1,1.46-1,2.37h0.02v0.01v73.27v0.02h-0.02c0,0.91,0.39,1.75,1.01,2.37c0.61,0.61,1.46,1,2.37,1v-0.02h0.01h61.7h0.02 v0.02c0.91,0,1.75-0.39,2.37-1.01c0.61-0.61,1-1.46,1-2.37h-0.02V108.92L105.18,108.92z" />
        </g>
    </symbol>
    <symbol id="check" viewBox="0 0 17.837 17.837">
        <g>
            <path
                d="M16.145,2.571c-0.272-0.273-0.718-0.273-0.99,0L6.92,10.804l-4.241-4.27   c-0.272-0.274-0.715-0.274-0.989,0L0.204,8.019c-0.272,0.271-0.272,0.717,0,0.99l6.217,6.258c0.272,0.271,0.715,0.271,0.99,0   L17.63,5.047c0.276-0.273,0.276-0.72,0-0.994L16.145,2.571z" />
        </g>
    </symbol>
    <symbol id="externalLink" viewBox="4 3 17 17" fill="none">
        <g>
            <path
                d="M10.0002 5H8.2002C7.08009 5 6.51962 5 6.0918 5.21799C5.71547 5.40973 5.40973 5.71547 5.21799 6.0918C5 6.51962 5 7.08009 5 8.2002V15.8002C5 16.9203 5 17.4801 5.21799 17.9079C5.40973 18.2842 5.71547 18.5905 6.0918 18.7822C6.5192 19 7.07899 19 8.19691 19H15.8031C16.921 19 17.48 19 17.9074 18.7822C18.2837 18.5905 18.5905 18.2839 18.7822 17.9076C19 17.4802 19 16.921 19 15.8031V14M20 9V4M20 4H15M20 4L13 11"
                stroke="currentColor" stroke-width="2" stroke-linecap="round" stroke-linejoin="round" />
        </g>
    </symbol>
    <symbol id="save" viewBox="0 0 512 512">
        <g>
            <g>
                <path d="M440.125,0H0v512h512V71.875L440.125,0z M281.6,31.347h31.347v94.041H281.6V31.347z M136.359,31.347h113.894v125.388
			h94.041V31.347h32.392v156.735H136.359V31.347z M417.959,480.653H94.041V344.816h323.918V480.653z M417.959,313.469H94.041
			v-31.347h323.918V313.469z M480.653,480.653h-31.347V250.775H62.694v229.878H31.347V31.347h73.665v188.082h303.02V31.347h19.108
			l53.512,53.512V480.653z" />
            </g>
        </g>
    </symbol>
    <symbol id="info" viewBox="0 0 416.979 416.979">
        <g>
            <path
                d="M356.004,61.156c-81.37-81.47-213.377-81.551-294.848-0.182c-81.47,81.371-81.552,213.379-0.181,294.85
		c81.369,81.47,213.378,81.551,294.849,0.181C437.293,274.636,437.375,142.626,356.004,61.156z M237.6,340.786
		c0,3.217-2.607,5.822-5.822,5.822h-46.576c-3.215,0-5.822-2.605-5.822-5.822V167.885c0-3.217,2.607-5.822,5.822-5.822h46.576
		c3.215,0,5.822,2.604,5.822,5.822V340.786z M208.49,137.901c-18.618,0-33.766-15.146-33.766-33.765
		c0-18.617,15.147-33.766,33.766-33.766c18.619,0,33.766,15.148,33.766,33.766C242.256,122.755,227.107,137.901,208.49,137.901z" />
        </g>
    </symbol>
    <symbol id="eyeShow" viewBox="0 0 600 600">
        <path
            d="M305 60h-10C188 64 94 146 7 277a40 40 0 0 0-7 19 40 40 0 0 0 0 3 40 40 0 0 0 1 6 40 40 0 0 0 1 8 40 40 0 0 0 1 1 40 40 0 0 0 4 8c87 131 181 213 288 217s206-73 299-217a40 40 0 0 0 6-25 40 40 0 0 0 0-3 40 40 0 0 0 0-1 40 40 0 0 0-6-15C504 138 408 61 305 60zm-7 80c62-2 134 42 214 160-80 117-151 161-214 159-62-2-134-53-210-159 76-107 148-158 210-160z" />
        <path
            d="M300 180c-66 0-120 54-120 120s54 120 120 120 120-54 120-120-54-120-120-120zm0 60c33 0 60 27 60 60s-27 60-60 60-60-27-60-60 27-60 60-60z" />
    </symbol>
    <symbol id="eyeHide" viewBox="0 0 600 600">
        <path
            d="M305 60h-10C188 64 94 146 7 277a40 40 0 0 0-7 19 40 40 0 0 0 0 3 40 40 0 0 0 1 6 40 40 0 0 0 1 8 40 40 0 0 0 1 1 40 40 0 0 0 4 8c28 43 58 81 88 112l57-57c-21-21-42-47-64-77 76-107 148-158 210-160 23-1 48 5 73 18l59-58c-41-26-82-40-125-40zm202 104-57 57c20 21 41 47 62 79-80 117-151 161-214 159-21-1-44-7-67-20l-59 59c39 25 80 39 123 41 107 4 206-73 299-217a40 40 0 0 0 6-25 40 40 0 0 0 0-3 40 40 0 0 0 0-1 40 40 0 0 0-6-15c-29-45-58-83-87-114zm-207 16a120 120 0 0 0-112 162l53-54c5-24 23-42 47-47l54-53c-13-5-27-8-42-8zm112 78-53 54c-5 24-23 42-47 47l-54 53a120 120 0 0 0 154-154zM570 0a30 30 0 0 0-21 9L9 549a30 30 0 0 0 0 42 30 30 0 0 0 42 0L591 51a30 30 0 0 0 0-42 30 30 0 0 0-21-9Z" />
    </symbol>
    <symbol id="arrowLeft" viewBox="3 4 18 16">
        <path fill-rule="evenodd" clip-rule="evenodd"
            d="M11.7071 4.29289C12.0976 4.68342 12.0976 5.31658 11.7071 5.70711L6.41421 11H20C20.5523 11 21 11.4477 21 12C21 12.5523 20.5523 13 20 13H6.41421L11.7071 18.2929C12.0976 18.6834 12.0976 19.3166 11.7071 19.7071C11.3166 20.0976 10.6834 20.0976 10.2929 19.7071L3.29289 12.7071C3.10536 12.5196 3 12.2652 3 12C3 11.7348 3.10536 11.4804 3.29289 11.2929L10.2929 4.29289C10.6834 3.90237 11.3166 3.90237 11.7071 4.29289Z" />
    </symbol>
    <symbol id="refresh" viewBox="0 0 65 65">
        <g fill="currentColor">
            <path
                d="m32.5 4.999c-5.405 0-10.444 1.577-14.699 4.282l-5.75-5.75v16.11h16.11l-6.395-6.395c3.18-1.787 6.834-2.82 10.734-2.82 12.171 0 22.073 9.902 22.073 22.074 0 2.899-0.577 5.664-1.599 8.202l4.738 2.762c1.47-3.363 2.288-7.068 2.288-10.964 0-15.164-12.337-27.501-27.5-27.501z" />
            <path
                d="m43.227 51.746c-3.179 1.786-6.826 2.827-10.726 2.827-12.171 0-22.073-9.902-22.073-22.073 0-2.739 0.524-5.35 1.439-7.771l-4.731-2.851c-1.375 3.271-2.136 6.858-2.136 10.622 0 15.164 12.336 27.5 27.5 27.5 5.406 0 10.434-1.584 14.691-4.289l5.758 5.759v-16.112h-16.111l6.389 6.388z" />
        </g>
    </symbol>
    <symbol id="roman1" viewBox="0 0 265 511.377" shape-rendering="geometricPrecision"
        text-rendering="geometricPrecision" image-rendering="optimizeQuality" fill-rule="evenodd" clip-rule="evenodd">
        <path fill-rule="nonzero" d="M0 444.277v67.1h265v-67.1h-93.145V66.755H265V0H0v66.755h92.587v377.522z" />
    </symbol>
    <symbol id="roman2" viewBox="0 0 512 510.769" shape-rendering="geometricPrecision"
        text-rendering="geometricPrecision" image-rendering="optimizeQuality" fill-rule="evenodd" clip-rule="evenodd">
        <path fill-rule="nonzero"
            d="M512 510.769v-67.02h-85.703V66.676H512V0H0v66.676h85.702v377.073H0v67.02h512zm-162.63-67.02H162.629V66.676H349.37v377.073z" />
    </symbol>
</svg>